# AST/ASF file generated using VICON BodyLanguage
# -----------------------------------------------
:version 1.10
:name VICON
:units
  mass 1.0
  length 0.45
  angle deg
:documentation
   .ast/.asf automatically generated from VICON data using
   VICON BodyBuilder and BodyLanguage model FoxedUp or BRILLIANT.MOD
:root
   order TX TY TZ RX RY RZ
   axis XYZ
   position 0 0 0  
   orientation 0 0 0 
:bonedata
  begin
     id 1 
     name lhipjoint
     direction 0.627457 -0.725269 0.283342 
     length 2.53237 
     axis 0 0 0  XYZ
  end
  begin
     id 2 
     name lfemur
     direction 0.34202 -0.939693 0  
     length 7.32496  
     axis 0 0 20  XYZ
    dof rx ry rz
    limits (-160.0 20.0)
           (-70.0 70.0)
           (-60.0 70.0)
  end
  begin
     id 3 
     name ltibia
     direction 0.34202 -0.939693 0   
     length 7.69674   
     axis 0 0 20   XYZ
    dof rx
    limits (-10.0 170.0)
  end
  begin
     id 4 
     name lfoot
     direction 0.127289 -0.349722 0.928166   
     length 1.8612   
     axis -90 7.62852e-016 20   XYZ
    dof rx rz
    limits (-45.0 90.0)
           (-70.0 20.0)
  end
  begin
     id 5 
     name ltoes
     direction 1.53561e-011 -4.21864e-011 1   
     length 0.925608   
     axis -90 7.62852e-016 20   XYZ
    dof rx
    limits (-90.0 20.0)
  end
  begin
     id 6 
     name rhipjoint
     direction -0.609094 -0.738725 0.288599   
     length 2.48624  
     axis 0 0 0  XYZ 
  end
  begin
     id 7 
     name rfemur
     direction -0.34202 -0.939693 0   
     length 7.44259   
     axis 0 0 -20   XYZ
    dof rx ry rz
    limits (-160.0 20.0)
           (-70.0 70.0)
           (-70.0 60.0)
  end
  begin
     id 8 
     name rtibia
     direction -0.34202 -0.939693 0   
     length 7.7781   
     axis 0 0 -20   XYZ
    dof rx
    limits (-10.0 170.0)
 end
 begin
     id 9 
     name rfoot
     direction -0.107015 -0.294021 0.949789   
     length 2.14741  
     axis -90 -7.62852e-016 -20   XYZ
    dof rx rz
    limits (-45.0 90.0)
           (-20.0 70.0)
  end
  begin
     id 10 
     name rtoes
     direction -1.53497e-011 -4.21924e-011 1   
     length 1.0706   
     axis -90 -7.62852e-016 -20   XYZ
    dof rx
    limits (-90.0 20.0)
  end
  begin
     id 11 
     name lowerback
     direction -0.0142066 0.998112 -0.0597545   
     length 1.86627   
     axis 0 0 0   XYZ
    dof rx ry rz
    limits (-20.0 45.0)
           (-30.0 30.0)
           (-30.0 30.0)
  end
  begin
     id 12 
     name upperback
     direction 0.00547294 0.999744 0.0219437   
     length 1.86272   
     axis 0 0 0   XYZ
    dof rx ry rz
    limits (-20.0 45.0)
           (-30.0 30.0)
           (-30.0 30.0)
  end
  begin
     id 13 
     name thorax
     direction 0.0116162 0.998704 0.0495538   
     length 1.8703   
     axis 0 0 0   XYZ
    dof rx ry rz
    limits (-20.0 45.0)
           (-30.0 30.0)
           (-30.0 30.0)
  end
  begin
     id 14 
     name lowerneck
     direction -0.0106574 0.998739 0.0490586   
     length 1.8074   
     axis 0 0 0   XYZ
    dof rx ry rz
    limits (-20.0 45.0)
           (-30.0 30.0)
           (-30.0 30.0)
  end
  begin
     id 15 
     name upperneck
     direction 0.030527 0.976587 -0.212944   
     length 1.80681   
     axis 0 0 0   XYZ
    dof rx ry rz
    limits (-20.0 45.0)
           (-30.0 30.0)
           (-30.0 30.0)
  end
  begin
     id 16
     name head
     direction 0.00869225 0.997035 -0.0764531  
     length 1.8313  
     axis 0 0 0   XYZ
    dof rx ry rz
    limits (-20.0 45.0)
           (-30.0 30.0)
           (-30.0 30.0)
  end
  begin
     id 17 
     name lclavicle
     direction 0.915958 0.399447 0.0382386  
     length 3.78965  
     axis 0 0 0   XYZ
    dof ry rz
    limits (-20.0 10.0)
           (0.0 20.0)
  end
  begin
     id 18 
     name lhumerus
     direction 1 -4.48967e-011 3.19303e-027   
     length 4.78095   
     axis -180 -30 -90   XYZ
    dof rx ry rz
    limits (-60.0 90.0)
           (-90.0 90.0)
           (-90.0 90.0)
  end
  begin
     id 19
     name lradius
     direction 1 -4.48967e-011 -3.77974e-027   
     length 3.58615   
     axis -180 -30 -90   XYZ
    dof rx
    limits (-10.0 170.0)
  end
  begin
     id 20
     name lwrist
     direction 1 -4.48927e-011 1.2807e-027   
     length 1.79307   
     axis 1.91374e-015 90 90   XYZ
    dof ry
    limits (-180.0 0.0)
 end
  begin
     id 21 
     name lhand
     direction 1 -4.49036e-011 2.5614e-027   
     length 0.659812   
     axis -1.63439e-015 90 90   XYZ
    dof rx rz
    limits (-90.0 90.0)
           (-45.0 45.0)
  end
  begin
     id 22 
     name lfingers
     direction 1 -4.49052e-011 5.1228e-027   
     length 0.531957   
     axis -3.26879e-015 90 90   XYZ
    dof rx
    limits (0.0 90.0)
  end
  begin
     id 23
     name lthumb
     direction 0.707107 -6.35012e-011 0.707107   
     length 0.763787   
     axis -90 45 2.85299e-015   XYZ
    dof rx rz
    limits (-45.0 45.0)
           (-45.0 45.0)
  end
  begin
     id 24 
     name rclavicle
     direction -0.895351 0.435135 0.0948887   
     length 3.70497  
     axis 0 0 0   XYZ 
    dof ry rz
    limits (-10.0 20.0)
           (-20.0 0.0)
  end
  begin
     id 25 
     name rhumerus
     direction -1 -4.48971e-011 2.38946e-027  
     length 4.48913   
     axis -180 30 90   XYZ
    dof rx ry rz
    limits (-90.0 60.0)
           (-90.0 90.0)
           (-90.0 90.0)
  end
  begin
     id 26 
     name rradius
     direction -1 -4.4895e-011 4.38668e-027   
     length 3.7051   
     axis -180 30 90   XYZ
    dof rx
    limits (-10.0 170.0)
  end
  begin
     id 27 
     name rwrist
     direction -1 -4.49007e-011 1.2807e-027   
     length 1.85255   
     axis 1.91374e-015 -90 -90   XYZ
    dof ry
    limits (-180.0 0.0)
  end
  begin
     id 28
     name rhand
     direction -1 -4.48851e-011 2.5614e-027   
     length 0.449136   
     axis -1.63439e-015 -90 -90   XYZ
    dof rx rz
    limits (-90.0 90.0)
           (-45.0 45.0)
  end
  begin
     id 29
     name rfingers
     direction -1 -4.49128e-011 5.1228e-027   
     length 0.362105   
     axis -3.26879e-015 -90 -90   XYZ
    dof rx
    limits (0.0 90.0)
  end
  begin
     id 30
     name rthumb
     direction -0.707107 -6.34851e-011 0.707107   
     length 0.519912   
     axis -90 -45 -2.85299e-015   XYZ
    dof rx rz
    limits (-45.0 45.0)
           (-45.0 45.0)
  end
:hierarchy
  begin
    root lhipjoint rhipjoint lowerback
    lhipjoint lfemur
    lfemur ltibia
    ltibia lfoot
    lfoot ltoes
    rhipjoint rfemur
    rfemur rtibia
    rtibia rfoot
    rfoot rtoes
    lowerback upperback
    upperback thorax
    thorax lowerneck lclavicle rclavicle
    lowerneck upperneck
    upperneck head
    lclavicle lhumerus
    lhumerus lradius
    lradius lwrist
    lwrist lhand lthumb
    lhand lfingers
    rclavicle rhumerus
    rhumerus rradius
    rradius rwrist
    rwrist rhand rthumb
    rhand rfingers
  end

#!OML:ASF I:\Actors\actors\Patient Classification 2\Patient 1\Session 1\actor1.ASF
:FULLY-SPECIFIED
:DEGREES
61
root -0.788618 18.6604 6.16201 1.74037 1.00218 -1.13391
lowerback 1.35374 -0.0432245 -0.824342
upperback -1.66778 -0.0730899 0.243005
thorax -2.46751 -0.0190087 0.713767
lowerneck -10.8828 -3.35503 -3.27266
upperneck 21.7431 -5.0933 4.64469
head 8.78105 -2.19572 1.56766
rclavicle -1.0781e-014 -5.56597e-015
rhumerus -44.3549 0.998587 -91.0826
rradius 39.2714
rwrist 22.5899
rhand -5.36727 -32.1152
rfingers 7.12502
rthumb 20.4405 -61.0593
lclavicle -1.0781e-014 -5.56597e-015
lhumerus -41.2336 1.87237 91.9835
lradius 38.1254
lwrist -10.6834
lhand -2.00946 -24.0195
lfingers 7.12502
lthumb 23.6643 4.5439
rfemur 8.87552 3.82289 15.8501
rtibia -7.95139e-015
rfoot -22.2651 -13.6873
rtoes -1.25443
lfemur -4.0877 -8.72695 -12.5453
ltibia 20.7438
lfoot -21.3549 9.03715
ltoes -56.0631
62
root -0.788526 18.6607 6.16298 1.75134 0.992854 -1.11804
lowerback 1.36345 -0.0315512 -0.829807
upperback -1.67245 -0.0580172 0.230819
thorax -2.47806 -0.0114376 0.703821
lowerneck -10.853 -3.35901 -3.2507
upperneck 21.6785 -5.09919 4.63802
head 8.75292 -2.19859 1.56136
rclavicle 9.56962e-015 5.76476e-015
rhumerus -44.3604 0.978452 -91.0764
rradius 39.2722
rwrist 22.5439
rhand -5.3733 -32.2166
rfingers 7.12502
rthumb 20.4347 -61.1614
lclavicle 9.56962e-015 5.76476e-015
lhumerus -41.2431 1.82576 91.9955
lradius 38.1705
lwrist -10.6692
lhand -2.04314 -23.8658
lfingers 7.12502
lthumb 23.632 4.7018
rfemur 8.86646 3.83077 15.8341
rtibia -2.38542e-014
rfoot -22.2624 -13.7208
rtoes -1.52304
lfemur -4.09675 -8.69725 -12.5618
ltibia 20.7454
lfoot -21.3139 9.04235
ltoes -56.097
63
root -0.788577 18.6603 6.16377 1.74797 0.986226 -1.09485
lowerback 1.38535 -0.0288505 -0.857517
upperback -1.66854 -0.0554098 0.225903
thorax -2.48641 -0.00965059 0.714243
lowerneck -10.8826 -3.34119 -3.16901
upperneck 21.6772 -5.06379 4.52486
head 8.75116 -2.18633 1.51289
rclavicle 1.1076e-014 2.38542e-015
rhumerus -44.351 0.997316 -91.0793
rradius 39.2636
rwrist 22.5292
rhand -5.43294 -32.2617
rfingers 7.12502
rthumb 20.3774 -61.2126
lclavicle 1.1076e-014 2.38542e-015
lhumerus -41.2407 1.82344 91.9979
lradius 38.212
lwrist -10.6762
lhand -2.05396 -23.8154
lfingers 7.12502
lthumb 23.6216 4.75359
rfemur 8.87301 3.8368 15.8111
rtibia 1.74931e-014
rfoot -22.3145 -13.7109
rtoes -1.46609
lfemur -4.08991 -8.70276 -12.5915
ltibia 20.748
lfoot -21.3314 9.06863
ltoes -56.1296
64
root -0.788569 18.6601 6.16453 1.74845 0.982051 -1.11016
lowerback 1.39411 -0.0369964 -0.845343
upperback -1.64796 -0.0657407 0.236781
thorax -2.46998 -0.0150799 0.718933
lowerneck -10.9715 -3.32758 -3.1285
upperneck 21.733 -5.03547 4.44616
head 8.78229 -2.1757 1.4814
rclavicle 5.42931e-015 1.23246e-014
rhumerus -44.303 1.04771 -91.0821
rradius 39.2485
rwrist 22.552
rhand -5.42759 -32.2598
rfingers 7.12502
rthumb 20.3825 -61.2101
lclavicle 5.42931e-015 1.23246e-014
lhumerus -41.1791 1.87289 91.9804
lradius 38.213
lwrist -10.6599
lhand -2.03859 -23.8358
lfingers 7.12502
lthumb 23.6364 4.73131
rfemur 8.87463 3.84108 15.829
rtibia -3.49861e-014
rfoot -22.3163 -13.7062
rtoes -1.42889
lfemur -4.08386 -8.7298 -12.5784
ltibia 20.747
lfoot -21.3714 9.11522
ltoes -56.1571
65
root -0.788298 18.6602 6.16541 1.75559 0.98094 -1.13937
lowerback 1.38844 -0.0424359 -0.818618
upperback -1.63514 -0.0718909 0.252155
thorax -2.45349 -0.0186117 0.719918
lowerneck -11.0031 -3.34657 -3.18081
upperneck 21.7761 -5.06208 4.48598
head 8.80657 -2.18743 1.50026
rclavicle -4.77704e-015 -7.55382e-015
rhumerus -44.2716 1.07251 -91.0689
rradius 39.2447
rwrist 22.5913
rhand -5.3421 -32.2641
rfingers 7.12502
rthumb 20.4647 -61.2056
lclavicle -4.77704e-015 -7.55382e-015
lhumerus -41.108 1.9304 91.9577
lradius 38.1648
lwrist -10.6826
lhand -2.03287 -23.8676
lfingers 7.12502
lthumb 23.6419 4.69871
rfemur 8.8709 3.84219 15.8601
rtibia 3.33958e-014
rfoot -22.2875 -13.7091
rtoes -1.42595
lfemur -4.08994 -8.69438 -12.5424
ltibia 20.7464
lfoot -21.3325 9.05889
ltoes -56.0907
66
root -0.788084 18.6605 6.1662 1.77057 0.986371 -1.13281
lowerback 1.3715 -0.0417883 -0.835233
upperback -1.63463 -0.0711181 0.260775
thorax -2.44343 -0.0178917 0.738021
lowerneck -10.9627 -3.38615 -3.28035
upperneck 21.7852 -5.12002 4.57804
head 8.80993 -2.21392 1.54224
rclavicle 9.06334e-015 6.16232e-015
rhumerus -44.2552 1.07668 -91.0523
rradius 39.2453
rwrist 22.5783
rhand -5.34633 -32.2977
rfingers 7.12502
rthumb 20.4606 -61.2396
lclavicle 9.06334e-015 6.16232e-015
lhumerus -41.0603 1.97516 91.9423
lradius 38.1063
lwrist -10.7671
lhand -2.02391 -23.9732
lfingers 7.12502
lthumb 23.6505 4.592
rfemur 8.85799 3.83557 15.8505
rtibia -9.54166e-015
rfoot -22.3169 -13.6891
rtoes -1.32348
lfemur -4.10829 -8.67049 -12.5448
ltibia 20.7484
lfoot -21.3124 9.04614
ltoes -56.0818
67
root -0.788204 18.6606 6.16733 1.78939 1.00051 -1.09505
lowerback 1.34572 -0.0448371 -0.874163
upperback -1.63912 -0.0762033 0.249771
thorax -2.43343 -0.0198654 0.748697
lowerneck -10.9185 -3.41205 -3.31846
upperneck 21.7844 -5.1583 4.61552
head 8.80524 -2.23194 1.5577
rclavicle 8.15638e-015 4.37326e-015
rhumerus -44.2338 1.0372 -91.0428
rradius 39.2132
rwrist 22.5898
rhand -5.39512 -32.3683
rfingers 7.12502
rthumb 20.4137 -61.3153
lclavicle 8.15638e-015 4.37326e-015
lhumerus -41.0402 1.96666 91.9359
lradius 38.0876
lwrist -10.7817
lhand -2.0051 -23.9892
lfingers 7.12502
lthumb 23.6685 4.57371
rfemur 8.8428 3.81925 15.8061
rtibia -3.18055e-015
rfoot -22.3404 -13.6615
rtoes -1.23218
lfemur -4.1283 -8.68356 -12.5835
ltibia 20.7492
lfoot -21.3329 9.09768
ltoes -56.1496
68
root -0.788072 18.6604 6.16835 1.79588 1.02212 -1.07948
lowerback 1.34011 -0.0498738 -0.880227
upperback -1.64904 -0.0833622 0.235807
thorax -2.44034 -0.0233913 0.738019
lowerneck -10.8835 -3.42293 -3.30814
upperneck 21.7814 -5.17741 4.62008
head 8.79843 -2.24024 1.5559
rclavicle 8.77759e-015 7.7526e-015
rhumerus -44.2423 0.985448 -91.036
rradius 39.193
rwrist 22.639
rhand -5.4392 -32.4248
rfingers 7.12502
rthumb 20.3714 -61.3763
lclavicle 8.77759e-015 7.7526e-015
lhumerus -41.0437 1.92517 91.9392
lradius 38.1013
lwrist -10.7443
lhand -1.98593 -23.8936
lfingers 7.12502
lthumb 23.6869 4.66695
rfemur 8.83916 3.79693 15.7875
rtibia 1.11319e-014
rfoot -22.3088 -13.6827
rtoes -1.38726
lfemur -4.13478 -8.68595 -12.5989
ltibia 20.7459
lfoot -21.3371 9.1027
ltoes -56.2225
69
root -0.787571 18.6601 6.16918 1.79051 1.0382 -1.08545
lowerback 1.36402 -0.0575658 -0.860108
upperback -1.6568 -0.0932975 0.238242
thorax -2.46161 -0.0285581 0.729634
lowerneck -10.8805 -3.42584 -3.34765
upperneck 21.7791 -5.18353 4.66333
head 8.79964 -2.24201 1.57653
rclavicle -4.97583e-015 5.96354e-016
rhumerus -44.2639 1.00396 -91.0402
rradius 39.2154
rwrist 22.6267
rhand -5.51107 -32.4841
rfingers 7.12502
rthumb 20.3023 -61.443
lclavicle -4.97583e-015 5.96354e-016
lhumerus -41.0509 1.95718 91.9371
lradius 38.1193
lwrist -10.7606
lhand -1.97512 -23.9172
lfingers 7.12502
lthumb 23.6973 4.64198
rfemur 8.84621 3.78151 15.7933
rtibia -2.54444e-014
rfoot -22.2858 -13.7186
rtoes -1.60823
lfemur -4.12607 -8.70864 -12.5964
ltibia 20.742
lfoot -21.3364 9.10855
ltoes -56.2432
70
root -0.787556 18.66 6.16992 1.78997 1.05247 -1.07667
lowerback 1.40106 -0.0636066 -0.848945
upperback -1.66714 -0.101507 0.234391
thorax -2.49296 -0.0327075 0.719796
lowerneck -10.9089 -3.4303 -3.38294
upperneck 21.7942 -5.19077 4.69788
head 8.81235 -2.24413 1.59293
rclavicle -7.61283e-015 -9.14409e-015
rhumerus -44.2693 1.00586 -91.0462
rradius 39.2291
rwrist 22.6199
rhand -5.58516 -32.5102
rfingers 7.12502
rthumb 20.2311 -61.4766
lclavicle -7.61283e-015 -9.14409e-015
lhumerus -41.0415 2.05943 91.9054
lradius 38.1115
lwrist -10.8738
lhand -1.96229 -23.9992
lfingers 7.12502
lthumb 23.7096 4.55837
rfemur 8.85461 3.7669 15.7828
rtibia 9.54166e-015
rfoot -22.2933 -13.7012
rtoes -1.49079
lfemur -4.12392 -8.74733 -12.6088
ltibia 20.7398
lfoot -21.3177 9.10619
ltoes -56.1561
71
root -0.787772 18.66 6.17103 1.79548 1.06993 -1.06713
lowerback 1.40945 -0.0614076 -0.83751
upperback -1.66673 -0.098652 0.220829
thorax -2.49733 -0.0316065 0.699387
lowerneck -10.9328 -3.44416 -3.35947
upperneck 21.7928 -5.20921 4.67612
head 8.81593 -2.25272 1.57917
rclavicle 1.29459e-014 1.5704e-014
rhumerus -44.2562 0.955166 -91.0435
rradius 39.2323
rwrist 22.6385
rhand -5.71603 -32.2159
rfingers 7.12502
rthumb 20.1053 -61.1956
lclavicle 1.29459e-014 1.5704e-014
lhumerus -41.0149 2.09299 91.8859
lradius 38.0982
lwrist -10.9743
lhand -1.94691 -23.9993
lfingers 7.12502
lthumb 23.7243 4.55635
rfemur 8.86192 3.7483 15.7735
rtibia -2.22639e-014
rfoot -22.2919 -13.6842
rtoes -1.37245
lfemur -4.12812 -8.76068 -12.6174
ltibia 20.7349
lfoot -21.2936 9.09583
ltoes -56.0895
72
root -0.787681 18.6599 6.17284 1.79727 1.08358 -1.04688
lowerback 1.37457 -0.0584329 -0.835176
upperback -1.65423 -0.0947937 0.198192
thorax -2.46495 -0.0301414 0.674639
lowerneck -10.8979 -3.4487 -3.26022
upperneck 21.7347 -5.2116 4.58152
head 8.78433 -2.25664 1.53065
rclavicle 2.57178e-015 2.18663e-015
rhumerus -44.257 0.896125 -91.051
rradius 39.2537
rwrist 22.6458
rhand -5.82283 -31.7681
rfingers 7.12502
rthumb 20.0027 -60.7585
lclavicle 2.57178e-015 2.18663e-015
lhumerus -41.0063 2.02625 91.9024
lradius 38.1101
lwrist -10.935
lhand -1.93107 -23.9243
lfingers 7.12502
lthumb 23.7395 4.62937
rfemur 8.87057 3.73367 15.7516
rtibia -1.59028e-014
rfoot -22.2924 -13.6916
rtoes -1.44363
lfemur -4.1212 -8.75136 -12.6397
ltibia 20.7265
lfoot -21.2932 9.1149
ltoes -56.1364
73
root -0.787706 18.6601 6.17402 1.80511 1.0942 -1.01394
lowerback 1.33952 -0.0584804 -0.864013
upperback -1.65428 -0.0956639 0.180745
thorax -2.44525 -0.0303129 0.672873
lowerneck -10.8062 -3.45109 -3.17992
upperneck 21.6676 -5.21972 4.53751
head 8.74126 -2.2607 1.50275
rclavicle 5.89521e-015 7.7526e-015
rhumerus -44.2958 0.850857 -91.0635
rradius 39.2726
rwrist 22.7176
rhand -5.76256 -31.8114
rfingers 7.12502
rthumb 20.0606 -60.7958
lclavicle 5.89521e-015 7.7526e-015
lhumerus -41.0165 1.98128 91.9309
lradius 38.1239
lwrist -10.8695
lhand -1.91541 -23.8305
lfingers 7.12502
lthumb 23.7545 4.72128
rfemur 8.86472 3.72177 15.714
rtibia 1.59028e-015
rfoot -22.3012 -13.7105
rtoes -1.55448
lfemur -4.12039 -8.74428 -12.6761
ltibia 20.7169
lfoot -21.2939 9.13352
ltoes -56.1982
74
root -0.788233 18.6603 6.17448 1.81386 1.09991 -1.00215
lowerback 1.31706 -0.0602181 -0.895451
upperback -1.65071 -0.0985326 0.181412
thorax -2.42886 -0.0312623 0.691233
lowerneck -10.7743 -3.46783 -3.20493
upperneck 21.6636 -5.25719 4.61751
head 8.73859 -2.27281 1.53031
rclavicle 7.77434e-015 4.96962e-015
rhumerus -44.323 0.840383 -91.0894
rradius 39.2816
rwrist 22.7855
rhand -5.62547 -32.2628
rfingers 7.12502
rthumb 20.1924 -61.2333
lclavicle 7.77434e-015 4.96962e-015
lhumerus -41.0025 1.95607 91.969
lradius 38.1235
lwrist -10.8315
lhand -1.9557 -23.7473
lfingers 7.12502
lthumb 23.7159 4.80946
rfemur 8.85833 3.71499 15.7019
rtibia 3.18055e-015
rfoot -22.3021 -13.7081
rtoes -1.50843
lfemur -4.12802 -8.73012 -12.6856
ltibia 20.7076
lfoot -21.2692 9.10561
ltoes -56.1983
75
root -0.788838 18.6603 6.17467 1.80353 1.10461 -0.979169
lowerback 1.32544 -0.0627494 -0.927605
upperback -1.6394 -0.103034 0.168357
thorax -2.42184 -0.0331345 0.696018
lowerneck -10.8078 -3.48343 -3.22159
upperneck 21.6949 -5.2905 4.67763
head 8.75919 -2.28282 1.54923
rclavicle -4.94166e-015 -3.37934e-015
rhumerus -44.3236 0.848461 -91.1393
rradius 39.298
rwrist 22.7407
rhand -5.56257 -32.5344
rfingers 7.12502
rthumb 20.2528 -61.4985
lclavicle -4.94166e-015 -3.37934e-015
lhumerus -40.9803 1.89242 91.9991
lradius 38.1238
lwrist -10.7637
lhand -2.03429 -23.6589
lfingers 7.12502
lthumb 23.6405 4.90765
rfemur 8.87251 3.71031 15.6789
rtibia 1.11319e-014
rfoot -22.304 -13.7023
rtoes -1.45361
lfemur -4.12237 -8.73969 -12.7113
ltibia 20.7038
lfoot -21.2605 9.10257
ltoes -56.1749
